<svg width="20" height="18" viewBox="0 0 20 18" fill="none" xmlns="http://www.w3.org/2000/svg">
    <path fill-rule="evenodd" clip-rule="evenodd"
        d="M6 6L8 6H12H14L16 6H18V8V11L11 11V9C11 8.44771 10.5523 8 10 8C9.44772 8 9 8.44771 9 9V11L2 11L2 8L2 6H4L6 6ZM2 14V13L18 13V14V16H16L4 16H2L2 14ZM6 4V3C6 1.34315 7.34315 4.76837e-07 9 2.38419e-07L11 0C12.6569 0 14 1.34315 14 3V4L18 4C19.1046 4 20 4.89543 20 6V16C20 17.1046 19.1046 18 18 18L2 18C0.895431 18 8.34465e-07 17.1046 8.34465e-07 16L0 6C-1.19209e-07 4.89543 0.895429 4 2 4H6ZM12 4V3C12 2.44795 11.5527 2.00038 11.0007 2H11H9L8.9993 2C8.44734 2.00038 8 2.44795 8 3V4H9L10 4H11H12Z"
        fill="white" />
</svg>