<svg width="123" height="29" viewBox="0 0 123 29" fill="none" xmlns="http://www.w3.org/2000/svg">
<g clip-path="url(#clip0)">
<path d="M95.8716 14.8863C95.9015 14.9457 95.9611 14.9457 95.9909 14.8863C96.6467 15.0349 97.3026 14.8863 97.9584 14.9754C98.018 14.9754 98.1075 15.0051 98.1671 15.0349C98.3459 15.0943 98.5546 15.1537 98.7335 15.1834C98.7931 15.1834 98.8527 15.2131 98.9124 15.2428C99.4788 15.3914 99.9856 15.6588 100.522 15.8668C100.582 15.8965 100.641 15.9263 100.701 15.956C100.91 16.1045 101.118 16.2234 101.357 16.3422C101.416 16.3719 101.476 16.4017 101.506 16.4611C102.162 16.9365 102.698 17.4713 103.265 18.0656C103.444 18.3627 103.861 18.6004 103.682 18.9867C103.503 19.4027 103.026 19.2244 102.639 19.2244C102.251 19.2541 101.864 19.1947 101.595 18.8678C100.731 17.7685 99.598 17.1445 98.3161 16.7582C96.5275 16.164 94.7686 16.2531 93.0098 16.8474C91.5192 17.3822 90.3268 18.2736 89.5517 19.6701C88.3891 21.8689 89.0747 24.5431 91.1913 26.0287C94.1426 28.1383 97.8988 28.1383 100.79 25.8207C101.566 25.2562 102.072 24.4836 102.37 23.5922C102.579 23.0277 102.46 22.8791 101.834 22.8791C99.8961 22.8791 97.9882 22.8791 96.0505 22.8791C95.663 22.8791 95.335 22.8494 95.2754 22.3443C95.2456 21.8986 95.3947 21.6015 95.8716 21.542C96.3188 21.5123 96.766 21.5123 97.243 21.5123C99.2105 21.5123 101.148 21.5123 103.116 21.5123C104.457 21.5123 104.636 21.7203 104.427 23.0574C104.368 23.4437 104.249 23.8002 104.129 24.1568C104.099 24.2162 104.099 24.3053 104.07 24.3648C103.891 24.6916 103.712 25.0482 103.503 25.3453C103.473 25.4047 103.444 25.4642 103.384 25.4939C103.265 25.6424 103.146 25.791 103.026 25.9396C102.996 25.999 102.937 26.0584 102.907 26.0881C102.639 26.3556 102.4 26.623 102.102 26.8904C102.043 26.9498 101.983 26.9795 101.923 27.0092C99.2999 28.9406 96.3486 29.2972 93.2185 28.7029C93.1589 28.7029 93.0694 28.6732 93.0098 28.6435C92.2049 28.3463 91.4 28.0789 90.6547 27.6926C90.5951 27.6629 90.5355 27.6332 90.4759 27.5738C90.2076 27.3361 89.9095 27.1281 89.5815 26.9498C89.5219 26.9201 89.4623 26.8607 89.4325 26.831C88.9257 26.3853 88.4785 25.8504 88.0612 25.3156C88.0015 25.2562 87.9717 25.1967 87.9419 25.1373C86.7793 23.1762 86.7495 21.1558 87.6438 19.1056C87.6736 19.0461 87.7034 18.9867 87.7631 18.9273C88.3891 17.917 89.194 17.0851 90.1778 16.3719C90.2374 16.3422 90.297 16.2828 90.3566 16.2531C91.3106 15.7183 92.2943 15.2428 93.3675 15.0349C93.4271 15.0051 93.5166 15.0051 93.5762 14.9754C93.8743 14.8863 94.1426 14.8863 94.4407 14.916C94.9475 14.916 95.4245 15.0051 95.8716 14.8863Z" fill="white"/>
<path d="M48.8601 0.178279C48.8899 0.207992 48.9197 0.237705 48.9793 0.207992C49.3669 0.297131 49.7842 0.297131 50.1419 0.505123C50.2612 0.594262 50.4699 0.47541 50.5891 0.653689C51.1853 0.772541 51.6921 1.01025 52.1691 1.3668L52.1989 1.33709L52.1691 1.3668C52.497 1.51537 52.8249 1.63422 53.0336 1.93135L53.0634 1.90164L53.0336 1.93135C53.8981 2.52561 54.5838 3.29816 55.1204 4.18955C55.4185 4.69467 55.2992 4.90266 54.7328 4.87295C54.1664 4.87295 53.451 5.14037 53.2423 4.24898C52.348 2.79303 50.9468 1.96107 49.3371 1.5748C46.6243 0.891394 44.1201 1.30738 41.9737 3.20902C39.41 5.49693 39.6485 9.24078 42.4209 11.291C45.1337 13.2818 49.0389 13.3412 51.7815 11.3801C52.4076 10.9344 52.974 10.3699 53.3317 9.65676C53.4211 9.32992 53.6596 9.21107 53.9876 9.27049C54.4049 9.32992 54.8819 9.09221 55.2396 9.44877C55.2694 9.59734 55.2098 9.7459 55.1502 9.89447C54.8223 10.3996 54.4645 10.9344 54.077 11.4098C53.5106 11.8555 53.0336 12.4498 52.3778 12.8064C49.2178 14.5891 45.9684 14.6486 42.6594 13.252C42.0334 12.8955 41.4372 12.4795 40.8409 12.0338C40.3341 11.6475 40.0062 11.1127 39.5889 10.667C39.5591 10.6076 39.4994 10.5779 39.4696 10.5184C39.3504 10.2807 39.2311 10.0727 39.0523 9.83504C39.0225 9.77561 38.9927 9.71619 38.9628 9.65676C37.9493 6.86373 38.4561 4.45697 40.4832 2.37705C40.5428 2.31762 40.5726 2.28791 40.6323 2.2582C40.8707 2.13934 41.0496 1.96107 41.2583 1.78279C41.3179 1.75307 41.3477 1.69365 41.4073 1.66393C41.5564 1.5748 41.6756 1.48566 41.7949 1.39652C41.8545 1.3668 41.9141 1.30738 41.9737 1.27766C43.0171 0.713115 44.1201 0.38627 45.2828 0.178279C46.4752 -0.0594262 47.6676 -0.0594262 48.8601 0.178279Z" fill="white"/>
<path d="M105.948 6.68546C105.889 6.89345 105.889 7.07173 105.948 7.27973C105.77 7.78485 105.352 7.666 104.994 7.666C102.61 7.666 100.225 7.666 97.8398 7.666C96.7667 7.666 96.7368 7.72542 96.7368 8.79509C96.7368 9.68649 96.7368 10.6076 96.7368 11.499C96.7368 11.7961 96.7368 12.0635 96.9157 12.3012C96.9753 12.3607 97.0349 12.4201 97.1244 12.4795C97.4225 12.5687 97.7504 12.5389 98.0485 12.5389C100.582 12.5389 103.087 12.5389 105.62 12.5389C106.425 12.5389 106.515 12.6875 106.485 13.4006C106.455 13.7275 106.336 13.876 106.008 13.9057C105.889 13.9355 105.77 13.9355 105.65 13.9355C102.371 13.9355 99.0919 13.9355 95.7829 13.9355C95.3357 13.9355 95.0078 13.9058 95.0078 13.2818C95.0376 9.00309 95.0078 4.75411 95.0078 0.475422C95.0078 0.415995 95.0376 0.386282 95.0376 0.326856C95.2761 0.0891512 95.5742 0.118864 95.8425 0.118864C99.0025 0.118864 102.133 0.118864 105.293 0.118864C105.591 0.118864 105.948 0.0891512 106.157 0.356569C106.366 0.623987 106.336 0.950831 106.247 1.24796C106.127 1.60452 105.829 1.51538 105.591 1.51538C103.057 1.51538 100.553 1.51538 98.0187 1.51538C96.9455 1.51538 96.7667 1.69366 96.7667 2.73362C96.7667 3.56559 96.7667 4.39755 96.7667 5.22952C96.7667 5.49694 96.7667 5.76436 96.9157 5.97235C96.9753 6.03177 97.035 6.0912 97.0946 6.15063C97.3927 6.26948 97.7206 6.21005 98.0187 6.21005C100.344 6.21005 102.699 6.21005 105.024 6.21005C105.322 6.26948 105.77 6.18034 105.948 6.68546Z" fill="white"/>
<path d="M82.9343 12.2418C82.4573 11.2316 81.861 10.3105 81.3245 9.32993C80.5196 7.87399 79.6849 6.44776 78.8501 5.02153C78.7607 4.87296 78.6713 4.66497 78.5222 4.57583C77.6875 3.26845 76.9124 1.93136 76.2268 0.56456C76.1672 0.505134 76.1075 0.386281 76.197 0.326855C76.5547 0.0594371 77.7471 0.237716 78.0452 0.594273C78.3434 0.980544 78.552 1.42624 78.7607 1.87194C78.9694 2.07993 79.0588 2.34735 79.1781 2.61477C79.3271 2.67419 79.2973 2.79304 79.3271 2.9119C79.655 3.29817 79.8935 3.71415 80.0426 4.18956C80.2513 4.39755 80.3407 4.66497 80.4599 4.90268C81.235 6.03177 81.8312 7.27972 82.4573 8.46825C82.815 8.82481 82.9342 9.32993 83.1727 9.74591C83.5305 10.3699 84.0671 10.9047 84.2757 11.5287C84.544 10.9344 85.021 10.3699 85.3787 9.7162C85.4384 9.62706 85.4086 9.47849 85.5278 9.41907C85.8855 8.73567 86.2135 8.02255 86.6606 7.39858C86.7202 7.30944 86.6904 7.16087 86.8097 7.13116C86.8693 7.04202 86.8395 6.89345 86.9587 6.83403C87.1376 6.47747 87.2568 6.0912 87.5251 5.82378C87.8531 5.11067 88.2406 4.45698 88.6579 3.80329C88.8666 3.35759 89.0753 2.9119 89.3734 2.49591C89.5821 2.16907 89.6417 1.75308 89.9696 1.48567C90.1187 1.12911 90.2976 0.772552 90.536 0.475421C90.8342 0.118863 92.0266 -0.0891284 92.3843 0.208003C92.4738 0.267429 92.4141 0.386281 92.3247 0.415994C92.2055 0.683413 92.116 0.950831 91.9073 1.15882C91.3707 2.19878 90.8341 3.20903 90.1783 4.15985C89.9994 4.5164 89.91 4.90268 89.6119 5.17009C89.3138 5.76436 89.0455 6.38833 88.5983 6.89345C88.2108 7.666 87.7934 8.43854 87.2866 9.18136C87.1674 9.41907 87.078 9.7162 86.8395 9.89448C86.7799 9.98362 86.8097 10.1322 86.6904 10.1916C86.601 10.459 86.4817 10.7264 86.2731 10.9344C86.2135 11.0236 86.2433 11.1721 86.124 11.2316C86.0048 11.499 85.9153 11.7664 85.7067 11.9744C85.4086 12.5687 85.1403 13.1629 84.6931 13.6978C84.1565 13.9949 83.769 13.9355 83.4708 13.3709C83.3516 12.9846 83.0833 12.6281 82.9343 12.2418Z" fill="white"/>
<path d="M80.31 24.5727C80.8168 25.2264 81.4727 25.7316 82.1285 26.3555C82.2775 26.0287 82.2179 25.791 82.2179 25.583C82.2179 22.4037 82.2179 19.2244 82.2179 16.0451C82.2179 15.8668 82.2179 15.7182 82.2179 15.54C82.1881 15.2725 82.3074 15.1834 82.5757 15.1537C83.619 15.0645 83.619 15.0645 83.619 16.0748C83.619 19.9375 83.619 23.8002 83.619 27.6629C83.619 27.7818 83.619 27.9006 83.619 28.0195C83.5892 28.2275 83.7383 28.4949 83.47 28.584C83.2017 28.6732 82.9036 28.6732 82.6651 28.4652C82.3372 28.1977 82.0987 27.8115 81.7111 27.6332C81.6217 27.6332 81.5621 27.5738 81.5621 27.4846C81.4727 27.4846 81.413 27.4252 81.413 27.3361C80.3398 26.5635 79.5051 25.5236 78.5512 24.6025C78.2531 24.335 77.955 24.0379 77.6867 23.7705C77.5972 23.7705 77.5376 23.7111 77.5376 23.6219C77.4482 23.6219 77.4184 23.5625 77.3885 23.4734C76.7327 22.6711 75.9576 22.0471 75.2123 21.334C73.8708 20.0266 72.4995 18.749 71.0984 17.3822C70.9792 17.6793 71.009 17.9467 71.009 18.1844C71.009 21.3934 71.009 24.6025 71.009 27.8115C71.009 27.9897 71.0388 28.168 71.009 28.3166C70.8599 28.8514 70.4128 28.4949 70.1147 28.584C69.906 28.6137 69.6079 28.7029 69.6079 28.2869C69.6079 28.1383 69.6079 27.9897 69.6079 27.8709C69.6079 23.8893 69.6079 19.8781 69.6079 15.8965C69.6079 15.8371 69.6079 15.8074 69.6079 15.7479C69.6377 15.54 69.4886 15.2428 69.7271 15.1537C69.9954 15.0645 70.3233 15.0348 70.5916 15.2725C71.0388 15.7182 71.5158 16.1639 71.9928 16.6096C72.1418 16.7582 72.2611 16.9365 72.4697 17.0256C73.9603 18.5707 75.5701 20.0266 77.1203 21.542C78.0444 22.4334 78.9685 23.3248 79.8927 24.2162C79.9821 24.3647 80.1013 24.543 80.31 24.5727Z" fill="white"/>
<path d="M35.9519 9.59736C35.9519 10.1025 35.9519 10.6373 35.9519 11.1424C35.6836 12.747 34.4315 13.4006 33.09 13.7275C31.4206 14.1732 29.6916 14.3515 27.9626 13.9058C26.7999 13.6086 25.7267 13.1332 24.9218 12.1824C24.6834 11.8853 24.3554 11.5881 24.4151 11.1424C24.4449 10.8453 24.2064 10.5779 24.3256 10.2213C24.4151 10.2213 24.5045 10.1916 24.5939 10.1916C25.3094 10.1025 25.9354 10.1322 26.1143 11.0236C26.1441 11.1424 26.2335 11.2613 26.3826 11.3504C26.7701 12.0041 27.426 12.3013 28.1116 12.5092C29.632 12.9847 31.1821 13.0738 32.7025 12.4498C33.418 12.1527 33.9248 11.6773 34.2825 11.0236C34.5508 10.0728 34.3719 9.38937 33.6266 8.82482C33.1795 8.46826 32.6727 8.20084 32.1361 8.02256C31.1821 7.72543 30.1984 7.51744 29.2444 7.27974C28.4097 7.10146 27.6048 6.80433 26.7999 6.47748C26.4124 6.32892 26.0845 6.12092 25.7566 5.85351C24.8324 5.14039 24.5343 4.18957 24.7132 3.09019C24.743 2.88219 24.8026 2.6742 24.8324 2.46621C24.892 2.37707 24.8622 2.22851 24.9815 2.16908C25.0411 2.07994 25.0113 1.93137 25.1603 1.90166C25.1603 1.81252 25.22 1.7531 25.2796 1.72338C25.7566 1.01027 26.472 0.653711 27.2769 0.445719C27.3962 0.297153 27.575 0.416006 27.7241 0.326866C27.8731 0.118874 28.1414 0.297153 28.3203 0.178301C28.3501 0.208014 28.4097 0.208014 28.4395 0.148588C29.5724 0.0297351 30.735 0.0297351 31.8678 0.148588L31.8976 0.178301L31.9572 0.148588C32.941 0.416006 33.9844 0.564571 34.6998 1.45597C34.7893 1.45597 34.8489 1.51539 34.8489 1.60453C35.0278 1.78281 35.2066 1.93138 35.2662 2.16908C35.5942 2.40679 35.624 2.79306 35.7134 3.14961C35.7432 3.74388 35.7432 3.74388 35.2066 3.74388C35.0278 3.74388 34.8787 3.74388 34.6998 3.74388C34.4017 3.77359 34.2229 3.65474 34.1334 3.3576C33.9546 2.76334 33.5968 2.25822 33.0304 1.96109C31.8678 1.12912 30.5263 1.03998 29.155 1.21826C28.4992 1.3074 27.8433 1.48568 27.2769 1.84224C26.2633 2.49592 25.9354 3.68445 26.5614 4.60556C26.8596 5.02154 27.2471 5.31867 27.7241 5.52666C28.4992 5.88322 29.3339 6.09121 30.1686 6.26949C31.0927 6.47748 32.0169 6.65576 32.941 6.95289C33.5372 7.16088 34.1334 7.4283 34.6998 7.69572C35.3855 8.17113 35.8028 8.7951 35.9519 9.59736Z" fill="white"/>
<path d="M53.0634 15.1833C55.0309 15.1833 56.9686 15.1833 58.9362 15.1833C59.6218 15.1833 59.6218 15.2131 59.592 15.9262C59.592 16.1936 59.5026 16.3124 59.2045 16.3124C58.7871 16.3124 58.3399 16.3124 57.9226 16.3124C56.76 16.3124 55.5973 16.3124 54.4347 16.3124C53.8087 16.3124 53.8087 16.3124 53.8087 16.9364C53.8087 20.5317 53.8087 24.1567 53.8087 27.752C53.8087 28.7325 53.9577 28.6434 52.8845 28.6434C52.7653 28.6434 52.646 28.6434 52.5268 28.6434C52.3181 28.6434 52.2287 28.5543 52.2287 28.3463C52.2287 28.168 52.2287 28.0194 52.2287 27.8411C52.2287 24.335 52.2287 20.8288 52.2287 17.293C52.2287 17.1741 52.2287 17.0553 52.2287 16.9364C52.2287 16.3124 52.2287 16.3124 51.6027 16.3124C50.7083 16.3124 49.8438 16.3124 48.9495 16.3124C48.2638 16.3124 47.5782 16.2827 46.8627 16.3124C46.4752 16.3422 46.3857 16.1639 46.3857 15.8073C46.3857 15.2131 46.3857 15.1833 47.0118 15.1833C49.0687 15.1833 51.0661 15.1833 53.0634 15.1833Z" fill="white"/>
<path d="M63.1689 21.8688C63.1689 19.8186 63.1689 17.7981 63.1689 15.7479C63.1689 15.2131 63.1689 15.1834 63.7055 15.1834C64.9278 15.1834 64.7489 15.0348 64.7489 16.1639C64.7489 20.0266 64.7489 23.8893 64.7489 27.7817C64.7489 27.96 64.7489 28.168 64.7489 28.3463C64.7489 28.5246 64.6595 28.6137 64.4806 28.6137C64.4508 28.6137 64.421 28.6137 64.421 28.6137C63.1988 28.7623 63.1689 28.7326 63.1689 27.4846C63.1689 25.6127 63.1689 23.7408 63.1689 21.8688Z" fill="white"/>
<path d="M20.3905 7.10143C20.3905 9.15164 20.3905 11.1721 20.3905 13.2223C20.3905 13.7572 20.3905 13.7572 19.8241 13.7572C18.8105 13.7869 18.8105 13.7869 18.8105 12.7469C18.8105 8.88422 18.8105 5.02151 18.8105 1.1291C18.8105 0.950817 18.8105 0.742825 18.8105 0.564546C18.8105 0.386268 18.9 0.297128 19.0788 0.297128C19.1087 0.297128 19.1385 0.297128 19.1385 0.297128C20.3905 0.178276 20.3905 0.178276 20.3905 1.42623C20.3905 3.35758 20.3905 5.22951 20.3905 7.10143Z" fill="white"/>
<path d="M41.9444 17.0256C42.1829 17.6496 42.5704 18.1844 42.9579 18.749C43.107 18.8084 43.0474 18.9569 43.1368 19.0461C43.3753 19.5512 43.6138 20.0563 43.9715 20.4723C43.9715 20.5912 44.0311 20.6803 44.1206 20.7397C44.21 21.0072 44.3292 21.2746 44.5379 21.4826C44.687 21.8391 44.8658 22.1957 45.1341 22.4631C45.1341 22.5819 45.164 22.6711 45.2832 22.7305C45.313 22.9088 45.4024 23.0574 45.5515 23.1762C45.9987 24.127 46.5353 25.0184 47.1315 25.8801C47.2805 26.2367 47.4296 26.5932 47.6979 26.8904C47.8171 27.1578 47.9364 27.3955 48.1152 27.6035C48.2047 27.96 48.473 28.1977 48.5922 28.5246C48.473 28.7623 48.2941 28.6434 48.1451 28.6731C47.4892 28.6731 46.8036 28.6731 46.1477 28.6731C45.8496 28.6731 45.6409 28.6137 45.4621 28.4057C45.2832 27.96 45.0447 27.5143 44.7466 27.1281C44.6572 26.8606 44.5081 26.6229 44.3292 26.4149C44.21 26.0584 44.0311 25.7018 43.7628 25.4047C43.7628 25.2858 43.733 25.1967 43.6138 25.1373C43.4945 24.751 43.3157 24.4242 43.0474 24.127C42.6598 23.2356 42.1232 22.4037 41.6165 21.5717C41.4674 21.2151 41.3183 20.8586 41.05 20.5615C40.8712 19.9969 40.4836 19.5809 40.275 19.0461C40.0067 19.1649 39.947 19.3729 39.8278 19.5512C39.0527 20.918 38.3074 22.2848 37.5324 23.6516C37.4727 23.7408 37.4429 23.8596 37.4131 23.9785C37.2939 24.0379 37.2641 24.127 37.2641 24.2459C36.7871 24.8699 36.4592 25.5533 36.1312 26.2367C35.8331 26.6229 35.5946 27.0686 35.4158 27.5143C35.1475 27.8115 34.9984 28.168 34.8494 28.5246C34.7003 28.6137 34.5513 28.6434 34.3724 28.6434C33.6271 28.6434 32.852 28.6434 32.1068 28.6434C31.9279 28.6434 31.7788 28.6731 31.749 28.4354C32.1366 27.9006 32.4943 27.336 32.7328 26.7121C32.852 26.6526 32.8818 26.5635 32.8818 26.4447C33.0309 26.3258 33.1203 26.207 33.1501 25.999C33.2694 25.9395 33.2992 25.8504 33.2992 25.7315C33.5675 25.375 33.8358 24.9887 33.9848 24.5727C34.1637 24.4242 34.2531 24.2459 34.283 24.0379C34.7897 23.3842 35.1773 22.6414 35.5648 21.8688C35.6841 21.8094 35.7139 21.7203 35.7139 21.6014C36.161 20.9774 36.5486 20.3238 36.8765 19.6106C37.0256 19.5215 37.115 19.3729 37.1448 19.1649C37.2641 19.1055 37.2939 19.0164 37.2939 18.8975C38.0093 17.7981 38.695 16.669 39.2912 15.4805C39.6787 14.9754 40.4538 14.916 40.9606 15.3617C41.2289 15.9559 41.5866 16.4908 41.9444 17.0256Z" fill="white"/>
<path d="M73.663 3.44668C73.3351 3.00098 72.9476 2.64442 72.5898 2.22844C72.411 2.05016 72.2321 1.9016 72.0234 1.78274C71.9042 1.66389 71.7551 1.57475 71.5763 1.51533C71.457 1.39647 71.308 1.27762 71.1291 1.24791C71.0695 1.12905 70.9502 1.15877 70.831 1.09934C70.354 0.802211 69.8174 0.623932 69.2808 0.50508C68.9529 0.356514 68.5654 0.297088 68.2076 0.237662L68.1778 0.267375L68.148 0.237662C66.7171 0.089096 65.2861 0.089096 63.885 0.386227C63.5571 0.475367 63.1994 0.50508 62.8715 0.683358C62.5137 0.802211 62.1262 0.831924 61.8579 1.09934C61.7685 1.15877 61.6194 1.12905 61.5896 1.24791C61.4107 1.30733 61.2915 1.39647 61.1424 1.51533C60.0096 2.07987 59.1749 2.97127 58.5787 4.10037C57.9825 5.25918 57.7142 6.47742 57.8334 7.78479C57.893 8.40877 58.1315 9.00303 58.2806 9.62701C58.3998 9.89442 58.4892 10.1618 58.6979 10.3401C59.0855 11.1721 59.7711 11.7663 60.5164 12.3012C62.782 13.9354 65.316 14.4405 68.0586 13.9948C69.251 13.7868 70.4136 13.4897 71.3974 12.7469C72.3812 12.0635 73.2457 11.3207 73.9313 10.3401C73.9611 10.251 73.9909 10.1618 74.0506 10.0727C75.3623 7.75508 75.2132 5.5266 73.663 3.44668ZM71.7253 10.7561C68.774 13.5491 63.885 13.5194 60.9636 10.6967C58.8768 8.67619 58.8768 5.46717 60.9337 3.44668C62.4541 1.96102 64.3024 1.33705 66.3593 1.30733C68.3865 1.33705 70.205 1.93131 71.6955 3.35754C73.8717 5.37803 73.8717 8.7059 71.7253 10.7561Z" fill="white"/>
<path d="M11.6556 23.295C11.5662 23.2356 11.596 23.087 11.4767 23.0276C11.4767 22.9385 11.4171 22.9088 11.3575 22.879C11.119 22.6413 10.8805 22.4334 10.642 22.1956C10.5228 22.1956 10.4334 22.1362 10.3737 22.0174C10.1949 21.9877 10.0458 21.8985 9.92658 21.7499C9.65828 21.6608 9.41979 21.6014 9.12168 21.5122C9.30055 21.2448 9.53904 21.1854 9.74771 21.0665C10.9998 20.2346 11.4767 18.6895 10.8507 17.3227C10.5824 16.7284 10.1054 16.3124 9.62847 15.8965C9.00244 15.5399 8.3466 15.3616 7.66095 15.1833C5.39531 15.1833 3.12968 15.1833 0.864049 15.1833C0.685183 15.1833 0.536128 15.1833 0.357262 15.1833C0.118775 15.1833 0.0293419 15.3022 0.0293419 15.5399C0.0293419 15.7182 0.0293419 15.8668 0.0293419 16.045C-0.000469071 19.7592 -0.000469071 23.4733 -0.000469071 27.2172C-0.000469071 27.544 0.0293419 27.8709 -0.000469071 28.2274C-0.03028 28.5245 0.0889638 28.6434 0.416884 28.6434C3.15949 28.584 5.9021 28.7325 8.6149 28.5543C9.38998 28.3165 10.0756 27.96 10.7613 27.544C10.7613 27.4549 10.8209 27.4252 10.9103 27.3954C10.9103 27.3063 10.97 27.2766 11.0594 27.2469C11.596 26.5635 12.0133 25.8504 12.0133 24.9293C12.0133 24.3647 11.8345 23.8299 11.6556 23.295ZM1.51989 16.5799C1.51989 16.3124 1.63913 16.1936 1.90743 16.2233C3.57685 16.2233 5.24626 16.2233 6.91567 16.253C7.63113 16.253 8.25716 16.5502 8.82357 16.9959C9.80733 17.7981 9.89677 19.2243 9.00244 20.1454C8.43603 20.7397 7.72057 21.0368 6.88586 21.0368C6.08097 21.0368 5.27607 21.0368 4.44136 21.0368C3.60666 21.0368 2.77195 21.0368 1.93724 21.0368C1.63913 21.0368 1.51989 20.9477 1.51989 20.6209C1.5497 19.2838 1.5497 17.9467 1.51989 16.5799ZM9.83714 26.4743C9.15149 27.1874 8.31679 27.544 7.36284 27.5737C6.46851 27.6034 5.60399 27.5737 4.70966 27.5737C3.81533 27.5737 2.89119 27.5737 1.99686 27.5737C1.66894 27.5737 1.5497 27.4846 1.5497 27.128C1.5497 25.5829 1.5497 24.0379 1.5497 22.4928C1.5497 22.1362 1.69876 22.0471 2.02668 22.0471C3.75571 22.0471 5.45494 22.0471 7.18397 22.0768C8.13792 22.1065 9.00244 22.3739 9.7179 23.0276C10.7315 24.0081 10.7911 25.4641 9.83714 26.4743Z" fill="white"/>
<path d="M13.0576 11.5584L13.0874 11.5881L13.0576 11.5584Z" fill="white"/>
<path d="M14.3391 4.07073C14.19 3.95188 14.1006 3.83302 14.0708 3.62503C13.7727 3.29819 13.4447 3.00106 13.2063 2.6445C12.7889 2.40679 12.4312 2.07995 12.0734 1.78282C11.8946 1.75311 11.7455 1.66397 11.6263 1.5154C11.507 1.5154 11.4176 1.48569 11.358 1.36684C11.1195 1.33712 10.9406 1.21827 10.7916 1.0697C10.1655 0.891426 9.5395 0.683434 8.91347 0.505155C8.31726 0.445729 7.72104 0.35659 7.12482 0.35659C4.91881 0.326877 2.74261 0.35659 0.536597 0.35659C0 0.326877 0 0.35659 0 0.891426C0 4.99184 0 9.12196 0 13.2224C0 13.7869 0 13.7869 0.596219 13.7869C2.32525 13.7869 4.0841 13.7275 5.81314 13.7869C7.87009 13.8463 9.8078 13.5195 11.6263 12.5984C11.6561 12.5984 11.6859 12.5984 11.7157 12.5984C11.7753 12.539 11.8946 12.539 11.8946 12.4498L11.9244 12.4795V12.4498C12.4014 12.3013 12.7293 11.9447 13.087 11.6179C13.6534 11.2019 14.0708 10.667 14.3689 10.0431C14.7564 9.27052 15.0545 8.46827 15.144 7.57688C15.2036 6.29921 14.9055 5.17011 14.3391 4.07073ZM11.2685 11.2019C10.0165 12.0933 8.58555 12.539 7.0652 12.5687C5.42559 12.5984 3.78599 12.5687 2.14639 12.5687C1.6396 12.5687 1.6396 12.5687 1.6396 12.0636C1.6396 10.3699 1.6396 8.70597 1.6396 7.01233C1.6396 5.34839 1.6396 3.68446 1.6396 2.02052C1.6396 1.5154 1.6396 1.48569 2.14639 1.48569C3.8158 1.48569 5.48521 1.45597 7.15463 1.48569C8.73461 1.5154 10.1953 1.99081 11.4772 2.97134C14.3093 5.22954 14.2496 9.09225 11.2685 11.2019Z" fill="white"/>
<path d="M122.523 12.8954C122.434 12.8657 122.404 12.8063 122.404 12.7469C122.255 12.6577 122.166 12.5092 122.106 12.3309C122.017 12.3012 121.987 12.2715 121.987 12.1823C121.659 11.8258 121.361 11.4692 121.122 11.0532C120.973 10.9641 120.884 10.8155 120.824 10.6372C120.735 10.6075 120.705 10.5481 120.705 10.4887C120.496 10.3401 120.347 10.1618 120.258 9.92413C119.781 9.41901 119.334 8.88417 118.976 8.20077C119.93 8.0522 120.675 7.60651 121.39 7.16081C121.42 7.07167 121.45 7.04196 121.54 7.04196C121.927 6.50712 122.374 6.03171 122.553 5.37802C122.851 4.30835 122.643 3.32782 122.106 2.40671C121.897 2.28786 121.778 2.07987 121.659 1.84216C121.569 1.84216 121.54 1.78274 121.51 1.6936C120.884 1.18847 120.138 0.831916 119.393 0.534785C118.618 0.415933 117.843 0.356506 117.038 0.356506C115.279 0.386219 113.52 0.356506 111.732 0.356506C111.404 0.356506 111.076 0.356506 110.718 0.356506C110.48 0.356506 110.36 0.445646 110.39 0.713064C110.39 0.861629 110.39 1.01019 110.39 1.12905C110.39 5.08089 110.39 9.06245 110.39 13.0143C110.39 13.1629 110.39 13.3114 110.39 13.4303C110.39 13.668 110.509 13.7868 110.718 13.7571C110.837 13.7571 110.957 13.7571 111.076 13.7571C112.06 13.7571 111.911 13.8463 111.911 12.9252C111.911 11.5584 111.911 10.1618 111.911 8.79503C111.911 8.40876 112.03 8.31962 112.388 8.31962C113.908 8.34933 115.428 8.31962 116.978 8.31962C117.277 8.31962 117.485 8.40876 117.545 8.70589C117.754 8.85446 117.873 9.03274 117.962 9.27044C118.469 9.80528 118.857 10.3698 119.244 10.9938C119.512 11.2909 119.811 11.5881 119.96 11.9743C120.168 12.1229 120.287 12.3309 120.377 12.5389C120.466 12.5686 120.496 12.628 120.496 12.6875C120.645 12.7766 120.764 12.9252 120.794 13.1034C121.301 13.9948 122.106 13.7274 122.911 13.7274C122.911 13.3709 122.583 13.2223 122.523 12.8954ZM117.664 7.30938C115.905 7.33909 114.146 7.30938 112.388 7.33909C112.03 7.33909 111.94 7.19052 111.97 6.86368C111.97 5.17003 111.97 3.5061 111.97 1.81245C111.97 1.45589 112.089 1.36675 112.417 1.36675C113.312 1.39647 114.176 1.36675 115.071 1.36675C115.875 1.36675 116.68 1.36675 117.515 1.36675C118.529 1.39647 119.453 1.66388 120.228 2.31757C121.599 3.53581 121.51 5.46716 119.989 6.53683C119.244 7.01224 118.499 7.30938 117.664 7.30938Z" fill="white"/>
<path d="M31.123 19.6998C30.9441 19.1947 30.6162 18.8084 30.3777 18.333C30.3777 18.3033 30.3479 18.2736 30.3479 18.2439C30.169 17.917 29.9007 17.6496 29.692 17.3525C29.066 16.8176 28.4102 16.2828 27.6649 15.956C26.6513 15.5103 25.6676 15.0051 24.5049 15.0646C23.4914 15.0051 22.5076 14.9754 21.494 15.0646C21.4344 15.0943 21.345 15.124 21.2854 15.0943C21.1065 15.1834 20.8978 15.124 20.6891 15.1537C20.5103 15.2726 20.3314 15.3023 20.1227 15.2726C20.0631 15.2726 20.0035 15.3023 19.9439 15.332C19.1688 15.6291 18.3937 15.9857 17.6484 16.3719C17.5888 16.4016 17.5292 16.4314 17.4696 16.4611C17.4099 16.4908 17.3801 16.5205 17.3205 16.5799C17.2907 16.6096 17.2311 16.6691 17.2013 16.6988C17.1118 16.7879 17.0224 16.8176 16.9031 16.8771C16.8435 16.9068 16.8137 16.9365 16.7541 16.9662C16.7243 16.9959 16.6647 17.0553 16.6348 17.0851C16.605 17.1148 16.5454 17.1742 16.5156 17.2039C16.0684 17.6793 15.5318 18.0359 15.2934 18.6598C15.2039 18.9273 15.0549 19.165 14.876 19.373C14.7866 19.6107 14.7269 19.8781 14.6375 20.1158C14.2202 21.3637 14.2202 22.6117 14.6673 23.8596C14.8164 24.2459 14.9952 24.6322 15.1443 25.0185C15.2337 25.167 15.2934 25.3453 15.4424 25.4344C15.5318 25.6721 15.6809 25.8207 15.8598 25.999C15.8598 26.0881 15.9194 26.1178 16.0088 26.1476C16.0088 26.2367 16.0684 26.2664 16.1579 26.2961C16.1877 26.3853 16.2175 26.415 16.3069 26.4447C16.3367 26.5338 16.3665 26.5635 16.456 26.5932C16.4858 26.6824 16.5156 26.7121 16.605 26.7418C16.7541 26.9201 16.933 27.0687 17.1714 27.1578C17.2609 27.3064 17.4397 27.3658 17.5888 27.4549C17.708 27.5738 17.8571 27.6629 18.036 27.7223C18.2744 27.7521 18.4533 27.8412 18.6024 27.9898C19.139 28.168 19.6458 28.376 20.1823 28.5543C21.2257 28.7326 22.2989 28.9109 23.3721 28.8514C25.8464 28.7029 28.0226 27.9303 29.7517 26.0881C31.5403 24.2162 32.0173 22.0769 31.123 19.6998ZM27.6947 26.1476C26.2638 27.1578 24.6838 27.6629 22.7461 27.6629C20.9276 27.6035 19.1092 27.0092 17.6484 25.583C15.4722 23.4734 15.4722 20.2941 17.6782 18.1844C18.8409 17.0851 20.242 16.4611 21.7921 16.2234C23.9683 15.9262 26.0253 16.3719 27.7841 17.709C28.6785 18.3924 29.3343 19.2244 29.692 20.2941C30.4075 22.4631 29.6026 24.7807 27.6947 26.1476Z" fill="white"/>
</g>
<defs>
<clipPath id="clip0">
<rect width="123" height="29" fill="white"/>
</clipPath>
</defs>
</svg>
